<svg width="109" height="78" viewBox="0 0 109 78" fill="none" xmlns="http://www.w3.org/2000/svg">
<path d="M21 7.51179C21.405 7.49293 21.7477 7.33578 22.028 7.04034C22.3084 6.74489 22.4517 6.39288 22.4517 5.98429C22.4517 6.39288 22.5888 6.74489 22.8692 7.04034C23.1495 7.33578 23.4922 7.49293 23.8972 7.51179C23.4922 7.53064 23.1495 7.6878 22.8692 7.98324C22.7336 8.12251 22.6269 8.28762 22.5552 8.46893C22.4835 8.65024 22.4484 8.84412 22.4517 9.03929C22.4517 8.6307 22.3146 8.27868 22.028 7.98324C21.7477 7.6878 21.405 7.53064 21 7.51179ZM22.4517 2.98586C23.2368 2.94814 23.9034 2.64013 24.4517 2.06181C25 1.4835 25.2741 0.798324 25.2741 0C25.2741 0.798324 25.5483 1.4835 26.0966 2.06181C26.6449 2.64013 27.3115 2.94185 28.1028 2.98586C27.5857 3.011 27.1121 3.15558 26.676 3.43216C26.2461 3.70246 25.9034 4.06705 25.648 4.51964C25.3988 4.97224 25.2741 5.45626 25.2741 5.98429C25.2741 5.18596 25 4.4945 24.4517 3.91619C23.9034 3.33159 23.2368 3.02357 22.4517 2.98586ZM24.5202 9.75589C25.1122 9.73075 25.6168 9.49817 26.028 9.06443C26.4393 8.6307 26.6449 8.11524 26.6449 7.51179C26.6449 8.11524 26.8505 8.6307 27.2617 9.06443C27.6729 9.49817 28.1713 9.73075 28.7632 9.75589C28.1713 9.78104 27.6729 10.0136 27.2617 10.4474C26.8505 10.8811 26.6449 11.3965 26.6449 12C26.6449 11.3965 26.4393 10.8811 26.028 10.4474C25.635 10.026 25.0934 9.77756 24.5202 9.75589ZM28.7632 6.77632C29.3551 6.75118 29.8536 6.5186 30.2648 6.08486C30.676 5.65113 30.8754 5.13567 30.8754 4.52593C30.8754 5.12939 31.081 5.64484 31.4922 6.07858C31.9034 6.51231 32.4081 6.74489 33 6.77004C32.4081 6.79518 31.9034 7.02776 31.4922 7.4615C31.081 7.89523 30.8754 8.41069 30.8754 9.01414C30.8754 8.41069 30.6698 7.89523 30.2648 7.4615C29.8536 7.03405 29.3551 6.80147 28.7632 6.77632Z" fill="#323B7E"/>
<path d="M0 42.5118C0.404984 42.4929 0.747664 42.3358 1.02804 42.0403C1.30841 41.7449 1.45171 41.3929 1.45171 40.9843C1.45171 41.3929 1.58879 41.7449 1.86916 42.0403C2.14953 42.3358 2.49221 42.4929 2.8972 42.5118C2.49221 42.5306 2.14953 42.6878 1.86916 42.9832C1.73361 43.1225 1.62689 43.2876 1.55522 43.4689C1.48355 43.6502 1.44836 43.8441 1.45171 44.0393C1.45171 43.6307 1.31464 43.2787 1.02804 42.9832C0.747664 42.6878 0.404984 42.5306 0 42.5118ZM1.45171 37.9859C2.23676 37.9481 2.90343 37.6401 3.45171 37.0618C4 36.4835 4.27414 35.7983 4.27414 35C4.27414 35.7983 4.54829 36.4835 5.09657 37.0618C5.64486 37.6401 6.31153 37.9419 7.1028 37.9859C6.58567 38.011 6.11215 38.1556 5.67601 38.4322C5.24611 38.7025 4.90343 39.0671 4.64798 39.5196C4.39875 39.9722 4.27414 40.4563 4.27414 40.9843C4.27414 40.186 4 39.4945 3.45171 38.9162C2.90343 38.3316 2.23676 38.0236 1.45171 37.9859ZM3.52025 44.7559C4.11215 44.7307 4.61682 44.4982 5.02804 44.0644C5.43925 43.6307 5.64486 43.1152 5.64486 42.5118C5.64486 43.1152 5.85047 43.6307 6.26168 44.0644C6.6729 44.4982 7.17134 44.7307 7.76324 44.7559C7.17134 44.781 6.6729 45.0136 6.26168 45.4474C5.85047 45.8811 5.64486 46.3965 5.64486 47C5.64486 46.3965 5.43925 45.8811 5.02804 45.4474C4.63501 45.026 4.09337 44.7776 3.52025 44.7559ZM7.76324 41.7763C8.35514 41.7512 8.85358 41.5186 9.2648 41.0849C9.67601 40.6511 9.87539 40.1357 9.87539 39.5259C9.87539 40.1294 10.081 40.6448 10.4922 41.0786C10.9034 41.5123 11.4081 41.7449 12 41.77C11.4081 41.7952 10.9034 42.0278 10.4922 42.4615C10.081 42.8952 9.87539 43.4107 9.87539 44.0141C9.87539 43.4107 9.66978 42.8952 9.2648 42.4615C8.85358 42.034 8.35514 41.8015 7.76324 41.7763Z" fill="#323B7E"/>
<path d="M78 7.51179C78.405 7.49293 78.7477 7.33578 79.028 7.04034C79.3084 6.74489 79.4517 6.39288 79.4517 5.98429C79.4517 6.39288 79.5888 6.74489 79.8692 7.04034C80.1495 7.33578 80.4922 7.49293 80.8972 7.51179C80.4922 7.53064 80.1495 7.6878 79.8692 7.98324C79.7336 8.12251 79.6269 8.28762 79.5552 8.46893C79.4835 8.65024 79.4484 8.84412 79.4517 9.03929C79.4517 8.6307 79.3146 8.27868 79.028 7.98324C78.7477 7.6878 78.405 7.53064 78 7.51179ZM79.4517 2.98586C80.2368 2.94814 80.9034 2.64013 81.4517 2.06181C82 1.4835 82.2741 0.798324 82.2741 0C82.2741 0.798324 82.5483 1.4835 83.0966 2.06181C83.6449 2.64013 84.3115 2.94185 85.1028 2.98586C84.5857 3.011 84.1121 3.15558 83.676 3.43216C83.2461 3.70246 82.9034 4.06705 82.648 4.51964C82.3988 4.97224 82.2741 5.45626 82.2741 5.98429C82.2741 5.18596 82 4.4945 81.4517 3.91619C80.9034 3.33159 80.2368 3.02357 79.4517 2.98586ZM81.5202 9.75589C82.1122 9.73075 82.6168 9.49817 83.028 9.06443C83.4393 8.6307 83.6449 8.11524 83.6449 7.51179C83.6449 8.11524 83.8505 8.6307 84.2617 9.06443C84.6729 9.49817 85.1713 9.73075 85.7632 9.75589C85.1713 9.78104 84.6729 10.0136 84.2617 10.4474C83.8505 10.8811 83.6449 11.3965 83.6449 12C83.6449 11.3965 83.4393 10.8811 83.028 10.4474C82.635 10.026 82.0934 9.77756 81.5202 9.75589ZM85.7632 6.77632C86.3551 6.75118 86.8536 6.5186 87.2648 6.08486C87.676 5.65113 87.8754 5.13567 87.8754 4.52593C87.8754 5.12939 88.081 5.64484 88.4922 6.07858C88.9034 6.51231 89.4081 6.74489 90 6.77004C89.4081 6.79518 88.9034 7.02776 88.4922 7.4615C88.081 7.89523 87.8754 8.41069 87.8754 9.01414C87.8754 8.41069 87.6698 7.89523 87.2648 7.4615C86.8536 7.03405 86.3551 6.80147 85.7632 6.77632Z" fill="#323B7E"/>
<path d="M97 42.5118C97.405 42.4929 97.7477 42.3358 98.028 42.0403C98.3084 41.7449 98.4517 41.3929 98.4517 40.9843C98.4517 41.3929 98.5888 41.7449 98.8692 42.0403C99.1495 42.3358 99.4922 42.4929 99.8972 42.5118C99.4922 42.5306 99.1495 42.6878 98.8692 42.9832C98.7336 43.1225 98.6269 43.2876 98.5552 43.4689C98.4835 43.6502 98.4484 43.8441 98.4517 44.0393C98.4517 43.6307 98.3146 43.2787 98.028 42.9832C97.7477 42.6878 97.405 42.5306 97 42.5118ZM98.4517 37.9859C99.2368 37.9481 99.9034 37.6401 100.452 37.0618C101 36.4835 101.274 35.7983 101.274 35C101.274 35.7983 101.548 36.4835 102.097 37.0618C102.645 37.6401 103.312 37.9419 104.103 37.9859C103.586 38.011 103.112 38.1556 102.676 38.4322C102.246 38.7025 101.903 39.0671 101.648 39.5196C101.399 39.9722 101.274 40.4563 101.274 40.9843C101.274 40.186 101 39.4945 100.452 38.9162C99.9034 38.3316 99.2368 38.0236 98.4517 37.9859ZM100.52 44.7559C101.112 44.7307 101.617 44.4982 102.028 44.0644C102.439 43.6307 102.645 43.1152 102.645 42.5118C102.645 43.1152 102.85 43.6307 103.262 44.0644C103.673 44.4982 104.171 44.7307 104.763 44.7559C104.171 44.781 103.673 45.0136 103.262 45.4474C102.85 45.8811 102.645 46.3965 102.645 47C102.645 46.3965 102.439 45.8811 102.028 45.4474C101.635 45.026 101.093 44.7776 100.52 44.7559ZM104.763 41.7763C105.355 41.7512 105.854 41.5186 106.265 41.0849C106.676 40.6511 106.875 40.1357 106.875 39.5259C106.875 40.1294 107.081 40.6448 107.492 41.0786C107.903 41.5123 108.408 41.7449 109 41.77C108.408 41.7952 107.903 42.0278 107.492 42.4615C107.081 42.8952 106.875 43.4107 106.875 44.0141C106.875 43.4107 106.67 42.8952 106.265 42.4615C105.854 42.034 105.355 41.8015 104.763 41.7763Z" fill="#323B7E"/>
<path d="M89.225 38.95H83.6515C82.0217 26.0983 71.9017 15.9783 59.05 14.3485V8.775C59.05 7.79469 58.2553 7 57.275 7H53.725C52.7447 7 51.95 7.79469 51.95 8.775V14.3485C39.0983 15.9783 28.9783 26.0983 27.3485 38.95H21.775C20.7947 38.95 20 39.7447 20 40.725V44.275C20 45.2553 20.7947 46.05 21.775 46.05H27.3485C28.9783 58.9017 39.0983 69.0217 51.95 70.6515V76.225C51.95 77.2053 52.7447 78 53.725 78H57.275C58.2553 78 59.05 77.2053 59.05 76.225V70.6515C71.9017 69.0217 82.0217 58.9017 83.6515 46.05H89.225C90.2053 46.05 91 45.2553 91 44.275V40.725C91 39.7447 90.2053 38.95 89.225 38.95ZM55.5 63.8C43.7363 63.8 34.2 54.2637 34.2 42.5C34.2 30.7363 43.7363 21.2 55.5 21.2C67.2637 21.2 76.8 30.7363 76.8 42.5C76.8 48.1491 74.5559 53.5669 70.5614 57.5614C66.5669 61.5559 61.1491 63.8 55.5 63.8ZM55.5 35.4C51.5788 35.4 48.4 38.5788 48.4 42.5C48.4 46.4212 51.5788 49.6 55.5 49.6C59.4212 49.6 62.6 46.4212 62.6 42.5C62.6 38.5788 59.4212 35.4 55.5 35.4Z" fill="#0FA4DC"/>
</svg>
