<svg width="32" height="30" viewBox="0 0 32 30" fill="none" xmlns="http://www.w3.org/2000/svg">
<rect width="32" height="30" rx="5" fill="#49CDFF"/>
<path fill-rule="evenodd" clip-rule="evenodd" d="M16 5C15.1129 5 13.6304 5.33125 12.2354 5.7C10.8083 6.075 9.36958 6.51875 8.52358 6.7875C8.16987 6.90106 7.85628 7.10933 7.61884 7.38838C7.3814 7.66742 7.22975 8.00592 7.18129 8.365C6.41501 13.9612 8.19315 18.1087 10.3506 20.8525C11.2655 22.0262 12.3563 23.0598 13.5867 23.9187C14.083 24.26 14.5433 24.5212 14.9341 24.7C15.2941 24.865 15.6811 25 16 25C16.3189 25 16.7046 24.865 17.0659 24.7C17.537 24.4773 17.9878 24.216 18.4133 23.9187C19.6437 23.0598 20.7346 22.0262 21.6494 20.8525C23.8069 18.1087 25.585 13.9612 24.8187 8.365C24.7703 8.00575 24.6187 7.66705 24.3813 7.38779C24.1439 7.10853 23.8302 6.90004 23.4764 6.78625C22.2483 6.39477 21.0107 6.03216 19.7646 5.69875C18.3696 5.3325 16.8871 5 16 5ZM16 11.25C16.4554 11.2493 16.8964 11.4054 17.2449 11.6906C17.5933 11.9757 17.8267 12.3716 17.9037 12.808C17.9807 13.2444 17.8963 13.6933 17.6656 14.075C17.4348 14.4568 17.0725 14.7468 16.6429 14.8938L17.1379 17.3812C17.1559 17.4717 17.1531 17.5649 17.1297 17.6543C17.1063 17.7436 17.0629 17.8267 17.0025 17.8978C16.9422 17.9689 16.8665 18.0261 16.7807 18.0654C16.695 18.1047 16.6014 18.125 16.5066 18.125H15.4934C15.3988 18.1248 15.3053 18.1043 15.2197 18.065C15.1341 18.0256 15.0585 17.9684 14.9983 17.8973C14.9381 17.8263 14.8948 17.7432 14.8715 17.6539C14.8482 17.5647 14.8454 17.4716 14.8634 17.3812L15.3571 14.8938C14.9275 14.7468 14.5652 14.4568 14.3344 14.075C14.1037 13.6933 14.0193 13.2444 14.0963 12.808C14.1733 12.3716 14.4067 11.9757 14.7551 11.6906C15.1036 11.4054 15.5445 11.2493 16 11.25Z" fill="white"/>
</svg>
