<svg width="32" height="30" viewBox="0 0 32 30" fill="none" xmlns="http://www.w3.org/2000/svg">
<rect width="32" height="30" rx="5" fill="#49CDFF"/>
<path d="M25.5 14H23.93C23.4709 10.3798 20.6202 7.52909 17 7.07V5.5C17 5.22386 16.7761 5 16.5 5H15.5C15.2239 5 15 5.22386 15 5.5V7.07C11.3798 7.52909 8.52909 10.3798 8.07 14H6.5C6.22386 14 6 14.2239 6 14.5V15.5C6 15.7761 6.22386 16 6.5 16H8.07C8.52909 19.6202 11.3798 22.4709 15 22.93V24.5C15 24.7761 15.2239 25 15.5 25H16.5C16.7761 25 17 24.7761 17 24.5V22.93C20.6202 22.4709 23.4709 19.6202 23.93 16H25.5C25.7761 16 26 15.7761 26 15.5V14.5C26 14.2239 25.7761 14 25.5 14ZM16 21C12.6863 21 10 18.3137 10 15C10 11.6863 12.6863 9 16 9C19.3137 9 22 11.6863 22 15C22 16.5913 21.3679 18.1174 20.2426 19.2426C19.1174 20.3679 17.5913 21 16 21ZM16 13C14.8954 13 14 13.8954 14 15C14 16.1046 14.8954 17 16 17C17.1046 17 18 16.1046 18 15C18 13.8954 17.1046 13 16 13Z" fill="white"/>
</svg>
