<svg width="32" height="30" viewBox="0 0 32 30" fill="none" xmlns="http://www.w3.org/2000/svg">
<rect width="32" height="30" rx="5" fill="#49CDFF"/>
<path d="M17.6642 7.40886C16.551 6.57398 15.0204 6.57398 13.9072 7.40886L7.46786 12.2384C6.99765 12.5911 7.24706 13.3393 7.83482 13.3393C8.1726 13.3393 8.44643 13.6131 8.44643 13.9509V20.6786C8.44643 22.0297 9.54173 23.125 10.8929 23.125C12.244 23.125 13.3393 22.0297 13.3393 20.6786C13.3393 19.3274 14.4346 18.2321 15.7857 18.2321C17.1368 18.2321 18.2321 19.3274 18.2321 20.6786C18.2321 22.0297 19.3274 23.125 20.6786 23.125C22.0297 23.125 23.125 22.0297 23.125 20.6786V13.8682C23.125 13.5385 23.3975 13.2741 23.727 13.284C24.2974 13.3011 24.5517 12.5745 24.0952 12.2321L17.6642 7.40886Z" fill="white"/>
</svg>
