<svg width="20" height="20" viewBox="0 0 20 20" fill="none" xmlns="http://www.w3.org/2000/svg">
<path d="M19.5 9H17.93C17.4709 5.37981 14.6202 2.52909 11 2.07V0.5C11 0.223858 10.7761 0 10.5 0H9.5C9.22386 0 9 0.223858 9 0.5V2.07C5.37981 2.52909 2.52909 5.37981 2.07 9H0.5C0.223858 9 0 9.22386 0 9.5V10.5C0 10.7761 0.223858 11 0.5 11H2.07C2.52909 14.6202 5.37981 17.4709 9 17.93V19.5C9 19.7761 9.22386 20 9.5 20H10.5C10.7761 20 11 19.7761 11 19.5V17.93C14.6202 17.4709 17.4709 14.6202 17.93 11H19.5C19.7761 11 20 10.7761 20 10.5V9.5C20 9.22386 19.7761 9 19.5 9ZM10 16C6.68629 16 4 13.3137 4 10C4 6.68629 6.68629 4 10 4C13.3137 4 16 6.68629 16 10C16 11.5913 15.3679 13.1174 14.2426 14.2426C13.1174 15.3679 11.5913 16 10 16ZM10 8C8.89543 8 8 8.89543 8 10C8 11.1046 8.89543 12 10 12C11.1046 12 12 11.1046 12 10C12 8.89543 11.1046 8 10 8Z" fill="white"/>
</svg>
