<svg width="109" height="89" viewBox="0 0 109 89" fill="none" xmlns="http://www.w3.org/2000/svg">
<path d="M52.0847 7.2586L26.6882 19.9995C25.7589 20.3946 24.9662 21.0542 24.4088 21.8962C23.8514 22.7383 23.5539 23.7256 23.5532 24.7354V36.618C23.5231 47.4322 26.6731 58.0167 32.6112 67.0548C37.1889 74.0066 43.2519 82.9185 53.3509 88.0075H57.9042C69.1415 84.5804 77.5299 75.4432 82.6615 67.6331C88.5997 58.595 91.7496 48.0105 91.7196 37.1963V24.7354C91.7209 23.7283 91.427 22.743 90.8741 21.9012C90.3212 21.0594 89.5337 20.3983 88.6089 19.9995L59.6574 7.65428C58.3669 7.12468 53.3752 6.71074 52.0847 7.2586Z" fill="#323B7E"/>
<path d="M51.0622 7.65408L22.1289 19.9993C21.2002 20.3946 20.4084 21.0545 19.8521 21.8966C19.2957 22.7387 18.9994 23.7259 19 24.7352V36.6178C19.0015 47.6206 22.2659 58.3758 28.3804 67.5232C34.4949 76.6705 43.1848 83.7991 53.351 88.0073C64.5883 84.5802 72.9767 75.443 78.1023 67.6329C84.043 58.596 87.1932 48.0107 87.1603 37.1961V24.7352C87.1609 23.7259 86.8646 22.7387 86.3082 21.8966C85.7518 21.0545 84.96 20.3946 84.0314 19.9993L55.1285 7.65408C54.486 7.37877 53.7943 7.23682 53.0954 7.23682C52.3964 7.23682 51.7047 7.37877 51.0622 7.65408Z" fill="#0FA4DC"/>
<path d="M87.0689 33.9946C87.0764 34.041 87.0764 34.0883 87.0689 34.1346C87.0689 34.2442 87.0689 34.3781 87.0689 34.5425C87.0689 34.9321 87.0994 35.4556 87.1237 36.1191C87.1481 36.7826 87.1846 37.6349 87.1237 38.6089C87.1237 39.0958 87.1237 39.6133 87.075 40.1611C87.075 40.4412 87.075 40.7212 87.075 41.0134C87.075 41.3056 87.0202 41.6221 86.9898 41.9082C86.8681 43.1257 86.7889 44.4649 86.5332 45.8833C86.4176 46.5894 86.3263 47.3321 86.1802 48.0808C86.0341 48.8296 85.8515 49.6026 85.681 50.394C84.877 53.8157 83.7583 57.1556 82.3391 60.3712C80.8888 63.5721 79.1573 66.638 77.1648 69.5327C76.203 70.8354 75.3386 72.0955 74.3646 73.1851C73.8959 73.733 73.4698 74.2869 73.0132 74.7739L71.6983 76.174C70.8826 77.0871 70.0426 77.8115 69.3425 78.4872C68.9834 78.8159 68.6607 79.1325 68.3503 79.4064L67.4981 80.0943L66.2806 81.0926L65.9579 81.3483C65.8849 81.4031 65.8423 81.4274 65.8423 81.4213C65.8423 81.4152 65.8423 81.3848 65.9336 81.3178L66.238 81.0439L67.4128 80.003L68.2711 79.2542C68.5816 78.9803 68.8799 78.6455 69.2451 78.3168C69.933 77.635 70.7548 76.9045 71.5583 75.9853L72.8549 74.573C73.3054 74.086 73.7254 73.5321 74.182 72.9842C75.1255 71.9007 76.0082 70.6406 76.9456 69.3318C78.9186 66.4433 80.6357 63.388 82.0773 60.2008C83.4842 57.0014 84.6026 53.6827 85.4193 50.2844C85.5958 49.4992 85.7602 48.7322 85.9306 47.9895C86.101 47.2468 86.1741 46.5042 86.2958 45.798C86.5637 44.3858 86.655 43.0526 86.7889 41.8413C86.8254 41.543 86.8559 41.2325 86.8863 40.9586C86.9168 40.6846 86.8863 40.3864 86.9228 40.1124C86.9472 39.5646 86.9715 39.0471 86.9959 38.5602C87.0629 37.5923 87.0446 36.7339 87.0446 36.0765V34.5486V34.1346C87.0435 34.0868 87.0517 34.0393 87.0689 33.9946Z" fill="#004D74"/>
<path d="M64.5396 49.9611H61.4533V33.1661C61.3989 31.3012 60.6199 29.5309 59.2816 28.231C57.9433 26.9311 56.1511 26.204 54.2854 26.204C52.4198 26.204 50.6275 26.9311 49.2892 28.231C47.9509 29.5309 47.1719 31.3012 47.1175 33.1661V49.9611H44.0312V33.1661C44.0965 30.4897 45.2054 27.945 47.1214 26.0752C49.0373 24.2053 51.6083 23.1587 54.2854 23.1587C56.9625 23.1587 59.5336 24.2053 61.4495 26.0752C63.3654 27.945 64.4744 30.4897 64.5396 33.1661V49.9611Z" fill="#F5F5F5"/>
<path d="M64.5701 38.5664H44.007C42.0537 38.5664 40.4702 40.1499 40.4702 42.1032V56.6885C40.4702 58.6418 42.0537 60.2253 44.007 60.2253H64.5701C66.5234 60.2253 68.1069 58.6418 68.1069 56.6885V42.1032C68.1069 40.1499 66.5234 38.5664 64.5701 38.5664Z" fill="white"/>
<path d="M64.5701 60.2251C64.8796 60.1924 65.1866 60.1395 65.4893 60.0669C66.2267 59.8541 66.8742 59.4056 67.3326 58.7899C67.791 58.1743 68.0352 57.4255 68.0277 56.6579C68.0277 55.9457 68.0277 55.1726 68.0277 54.3387C68.0277 52.6768 68.0277 50.7836 68.0277 48.6896C68.0277 46.5955 68.0277 44.3128 68.0277 41.8535C67.9819 41.2405 67.771 40.6514 67.4173 40.1488C67.0636 39.6461 66.5803 39.2486 66.0189 38.9985C65.42 38.752 64.771 38.6518 64.1257 38.7063H62.0803L44.0069 38.7002C43.2472 38.6999 42.5096 38.9557 41.9132 39.4262C41.3168 39.8967 40.8963 40.5546 40.7197 41.2934C40.6408 41.6613 40.608 42.0375 40.6223 42.4135V45.8407C40.6223 48.8844 40.6223 51.7576 40.6223 54.5274C40.6771 55.9031 40.391 57.3215 41.0972 58.405C41.4098 58.9373 41.8606 59.375 42.4018 59.6719C42.943 59.9687 43.5544 60.1136 44.1713 60.0912H51.0196L60.9359 60.146H63.6265H64.3266C64.4075 60.1383 64.4891 60.1383 64.5701 60.146C64.4891 60.1551 64.4075 60.1551 64.3266 60.146H63.6265H60.9359L51.0196 60.1947H44.1713C43.6683 60.2173 43.166 60.1365 42.6955 59.9573C42.225 59.7781 41.7962 59.5043 41.4357 59.1529C41.0751 58.8015 40.7905 58.3799 40.5993 57.9141C40.4081 57.4483 40.3144 56.9483 40.3241 56.4449V54.5274C40.3241 51.7576 40.3241 48.8539 40.3241 45.8407V42.4379C40.3058 42.0293 40.3406 41.62 40.4276 41.2204C40.6253 40.4226 41.0865 39.7148 41.7363 39.2115C42.3916 38.6933 43.202 38.4103 44.0374 38.408H62.0438H64.0892C64.7754 38.3556 65.4642 38.4683 66.098 38.7367C66.7035 39.0071 67.224 39.4372 67.6037 39.9809C67.9833 40.5246 68.2077 41.1614 68.2529 41.823C68.2529 44.3067 68.2529 46.5834 68.2529 48.6774C68.2529 50.7715 68.2529 52.6646 68.2529 54.3265C68.2529 55.1605 68.2529 55.9336 68.2529 56.6458C68.2536 57.3124 68.068 57.966 67.7172 58.5329C67.2399 59.3201 66.4727 59.8884 65.5806 60.1156C65.2535 60.2148 64.9108 60.252 64.5701 60.2251Z" fill="#263238"/>
<path d="M56.4068 49.9552C56.6854 49.6773 56.9063 49.3471 57.0567 48.9835C57.2072 48.62 57.2842 48.2302 57.2834 47.8368C57.2869 47.2696 57.132 46.7128 56.836 46.229C56.54 45.7453 56.1147 45.3538 55.6081 45.0989C55.1015 44.8439 54.5338 44.7355 53.9689 44.786C53.404 44.8365 52.8644 45.0438 52.4111 45.3845C51.9577 45.7252 51.6086 46.1859 51.403 46.7144C51.1974 47.243 51.1437 47.8185 51.2477 48.376C51.3518 48.9335 51.6095 49.4509 51.9919 49.8697C52.3742 50.2886 52.866 50.5923 53.4118 50.7465L52.7604 53.6319H55.6519L55.0432 50.7465C55.5484 50.6022 56.0077 50.3296 56.3763 49.9552" fill="#0FA4DC"/>
<path d="M21 7.51179C21.405 7.49293 21.7477 7.33578 22.028 7.04034C22.3084 6.74489 22.4517 6.39288 22.4517 5.98429C22.4517 6.39288 22.5888 6.74489 22.8692 7.04034C23.1495 7.33578 23.4922 7.49293 23.8972 7.51179C23.4922 7.53064 23.1495 7.6878 22.8692 7.98324C22.7336 8.12251 22.6269 8.28762 22.5552 8.46893C22.4835 8.65024 22.4484 8.84412 22.4517 9.03929C22.4517 8.6307 22.3146 8.27868 22.028 7.98324C21.7477 7.6878 21.405 7.53064 21 7.51179ZM22.4517 2.98586C23.2368 2.94814 23.9034 2.64013 24.4517 2.06181C25 1.4835 25.2741 0.798324 25.2741 0C25.2741 0.798324 25.5483 1.4835 26.0966 2.06181C26.6449 2.64013 27.3115 2.94185 28.1028 2.98586C27.5857 3.011 27.1121 3.15558 26.676 3.43216C26.2461 3.70246 25.9034 4.06705 25.648 4.51964C25.3988 4.97224 25.2741 5.45626 25.2741 5.98429C25.2741 5.18596 25 4.4945 24.4517 3.91619C23.9034 3.33159 23.2368 3.02357 22.4517 2.98586ZM24.5202 9.75589C25.1122 9.73075 25.6168 9.49817 26.028 9.06443C26.4393 8.6307 26.6449 8.11524 26.6449 7.51179C26.6449 8.11524 26.8505 8.6307 27.2617 9.06443C27.6729 9.49817 28.1713 9.73075 28.7632 9.75589C28.1713 9.78104 27.6729 10.0136 27.2617 10.4474C26.8505 10.8811 26.6449 11.3965 26.6449 12C26.6449 11.3965 26.4393 10.8811 26.028 10.4474C25.635 10.026 25.0934 9.77756 24.5202 9.75589ZM28.7632 6.77632C29.3551 6.75118 29.8536 6.5186 30.2648 6.08486C30.676 5.65113 30.8754 5.13567 30.8754 4.52593C30.8754 5.12939 31.081 5.64484 31.4922 6.07858C31.9034 6.51231 32.4081 6.74489 33 6.77004C32.4081 6.79518 31.9034 7.02776 31.4922 7.4615C31.081 7.89523 30.8754 8.41069 30.8754 9.01414C30.8754 8.41069 30.6698 7.89523 30.2648 7.4615C29.8536 7.03405 29.3551 6.80147 28.7632 6.77632Z" fill="#323B7E"/>
<path d="M0 42.5118C0.404984 42.4929 0.747664 42.3358 1.02804 42.0403C1.30841 41.7449 1.45171 41.3929 1.45171 40.9843C1.45171 41.3929 1.58879 41.7449 1.86916 42.0403C2.14953 42.3358 2.49221 42.4929 2.8972 42.5118C2.49221 42.5306 2.14953 42.6878 1.86916 42.9832C1.73361 43.1225 1.62689 43.2876 1.55522 43.4689C1.48355 43.6502 1.44836 43.8441 1.45171 44.0393C1.45171 43.6307 1.31464 43.2787 1.02804 42.9832C0.747664 42.6878 0.404984 42.5306 0 42.5118ZM1.45171 37.9859C2.23676 37.9481 2.90343 37.6401 3.45171 37.0618C4 36.4835 4.27414 35.7983 4.27414 35C4.27414 35.7983 4.54829 36.4835 5.09657 37.0618C5.64486 37.6401 6.31153 37.9419 7.1028 37.9859C6.58567 38.011 6.11215 38.1556 5.67601 38.4322C5.24611 38.7025 4.90343 39.0671 4.64798 39.5196C4.39875 39.9722 4.27414 40.4563 4.27414 40.9843C4.27414 40.186 4 39.4945 3.45171 38.9162C2.90343 38.3316 2.23676 38.0236 1.45171 37.9859ZM3.52025 44.7559C4.11215 44.7307 4.61682 44.4982 5.02804 44.0644C5.43925 43.6307 5.64486 43.1152 5.64486 42.5118C5.64486 43.1152 5.85047 43.6307 6.26168 44.0644C6.6729 44.4982 7.17134 44.7307 7.76324 44.7559C7.17134 44.781 6.6729 45.0136 6.26168 45.4474C5.85047 45.8811 5.64486 46.3965 5.64486 47C5.64486 46.3965 5.43925 45.8811 5.02804 45.4474C4.63501 45.026 4.09337 44.7776 3.52025 44.7559ZM7.76324 41.7763C8.35514 41.7512 8.85358 41.5186 9.2648 41.0849C9.67601 40.6511 9.87539 40.1357 9.87539 39.5259C9.87539 40.1294 10.081 40.6448 10.4922 41.0786C10.9034 41.5123 11.4081 41.7449 12 41.77C11.4081 41.7952 10.9034 42.0278 10.4922 42.4615C10.081 42.8952 9.87539 43.4107 9.87539 44.0141C9.87539 43.4107 9.66978 42.8952 9.2648 42.4615C8.85358 42.034 8.35514 41.8015 7.76324 41.7763Z" fill="#323B7E"/>
<path d="M78 7.51179C78.405 7.49293 78.7477 7.33578 79.028 7.04034C79.3084 6.74489 79.4517 6.39288 79.4517 5.98429C79.4517 6.39288 79.5888 6.74489 79.8692 7.04034C80.1495 7.33578 80.4922 7.49293 80.8972 7.51179C80.4922 7.53064 80.1495 7.6878 79.8692 7.98324C79.7336 8.12251 79.6269 8.28762 79.5552 8.46893C79.4835 8.65024 79.4484 8.84412 79.4517 9.03929C79.4517 8.6307 79.3146 8.27868 79.028 7.98324C78.7477 7.6878 78.405 7.53064 78 7.51179ZM79.4517 2.98586C80.2368 2.94814 80.9034 2.64013 81.4517 2.06181C82 1.4835 82.2741 0.798324 82.2741 0C82.2741 0.798324 82.5483 1.4835 83.0966 2.06181C83.6449 2.64013 84.3115 2.94185 85.1028 2.98586C84.5857 3.011 84.1121 3.15558 83.676 3.43216C83.2461 3.70246 82.9034 4.06705 82.648 4.51964C82.3988 4.97224 82.2741 5.45626 82.2741 5.98429C82.2741 5.18596 82 4.4945 81.4517 3.91619C80.9034 3.33159 80.2368 3.02357 79.4517 2.98586ZM81.5202 9.75589C82.1122 9.73075 82.6168 9.49817 83.028 9.06443C83.4393 8.6307 83.6449 8.11524 83.6449 7.51179C83.6449 8.11524 83.8505 8.6307 84.2617 9.06443C84.6729 9.49817 85.1713 9.73075 85.7632 9.75589C85.1713 9.78104 84.6729 10.0136 84.2617 10.4474C83.8505 10.8811 83.6449 11.3965 83.6449 12C83.6449 11.3965 83.4393 10.8811 83.028 10.4474C82.635 10.026 82.0934 9.77756 81.5202 9.75589ZM85.7632 6.77632C86.3551 6.75118 86.8536 6.5186 87.2648 6.08486C87.676 5.65113 87.8754 5.13567 87.8754 4.52593C87.8754 5.12939 88.081 5.64484 88.4922 6.07858C88.9034 6.51231 89.4081 6.74489 90 6.77004C89.4081 6.79518 88.9034 7.02776 88.4922 7.4615C88.081 7.89523 87.8754 8.41069 87.8754 9.01414C87.8754 8.41069 87.6698 7.89523 87.2648 7.4615C86.8536 7.03405 86.3551 6.80147 85.7632 6.77632Z" fill="#323B7E"/>
<path d="M97 42.5118C97.405 42.4929 97.7477 42.3358 98.028 42.0403C98.3084 41.7449 98.4517 41.3929 98.4517 40.9843C98.4517 41.3929 98.5888 41.7449 98.8692 42.0403C99.1495 42.3358 99.4922 42.4929 99.8972 42.5118C99.4922 42.5306 99.1495 42.6878 98.8692 42.9832C98.7336 43.1225 98.6269 43.2876 98.5552 43.4689C98.4835 43.6502 98.4484 43.8441 98.4517 44.0393C98.4517 43.6307 98.3146 43.2787 98.028 42.9832C97.7477 42.6878 97.405 42.5306 97 42.5118ZM98.4517 37.9859C99.2368 37.9481 99.9034 37.6401 100.452 37.0618C101 36.4835 101.274 35.7983 101.274 35C101.274 35.7983 101.548 36.4835 102.097 37.0618C102.645 37.6401 103.312 37.9419 104.103 37.9859C103.586 38.011 103.112 38.1556 102.676 38.4322C102.246 38.7025 101.903 39.0671 101.648 39.5196C101.399 39.9722 101.274 40.4563 101.274 40.9843C101.274 40.186 101 39.4945 100.452 38.9162C99.9034 38.3316 99.2368 38.0236 98.4517 37.9859ZM100.52 44.7559C101.112 44.7307 101.617 44.4982 102.028 44.0644C102.439 43.6307 102.645 43.1152 102.645 42.5118C102.645 43.1152 102.85 43.6307 103.262 44.0644C103.673 44.4982 104.171 44.7307 104.763 44.7559C104.171 44.781 103.673 45.0136 103.262 45.4474C102.85 45.8811 102.645 46.3965 102.645 47C102.645 46.3965 102.439 45.8811 102.028 45.4474C101.635 45.026 101.093 44.7776 100.52 44.7559ZM104.763 41.7763C105.355 41.7512 105.854 41.5186 106.265 41.0849C106.676 40.6511 106.875 40.1357 106.875 39.5259C106.875 40.1294 107.081 40.6448 107.492 41.0786C107.903 41.5123 108.408 41.7449 109 41.77C108.408 41.7952 107.903 42.0278 107.492 42.4615C107.081 42.8952 106.875 43.4107 106.875 44.0141C106.875 43.4107 106.67 42.8952 106.265 42.4615C105.854 42.034 105.355 41.8015 104.763 41.7763Z" fill="#323B7E"/>
</svg>
