<svg width="32" height="30" viewBox="0 0 32 30" fill="none" xmlns="http://www.w3.org/2000/svg">
<rect width="32" height="30" rx="5" fill="#49CDFF"/>
<path d="M9.06593 7C8.46901 7 8 7.46901 8 8.06593C8 8.66285 8.46901 9.13186 9.06593 9.13186C9.66285 9.13186 10.1319 8.66285 10.1319 8.06593C10.1319 7.46901 9.66285 7 9.06593 7ZM12.2637 7V9.13186H25.0549V7H12.2637ZM9.06593 11.2637C8.46901 11.2637 8 11.7327 8 12.3297C8 12.9266 8.46901 13.3956 9.06593 13.3956C9.66285 13.3956 10.1319 12.9266 10.1319 12.3297C10.1319 11.7327 9.66285 11.2637 9.06593 11.2637ZM12.2637 11.2637V13.3956H25.0549V11.2637H12.2637ZM9.06593 15.5274C8.46901 15.5274 8 15.9965 8 16.5934C8 17.1903 8.46901 17.6593 9.06593 17.6593C9.66285 17.6593 10.1319 17.1903 10.1319 16.5934C10.1319 15.9965 9.66285 15.5274 9.06593 15.5274ZM12.2637 15.5274V17.6593H25.0549V15.5274H12.2637ZM9.06593 19.7912C8.46901 19.7912 8 20.2602 8 20.8571C8 21.454 8.46901 21.923 9.06593 21.923C9.66285 21.923 10.1319 21.454 10.1319 20.8571C10.1319 20.2602 9.66285 19.7912 9.06593 19.7912ZM12.2637 19.7912V21.923H25.0549V19.7912H12.2637Z" fill="white"/>
</svg>
