<svg width="32" height="30" viewBox="0 0 32 30" fill="none" xmlns="http://www.w3.org/2000/svg">
<rect width="32" height="30" rx="5" fill="#49CDFF"/>
<path d="M20.23 21L16 18.45L11.77 21L12.89 16.19L9.16 12.96L14.08 12.54L16 8L17.92 12.53L22.84 12.95L19.11 16.18L20.23 21ZM16 5C10.47 5 6 9.5 6 15C6 17.6522 7.05357 20.1957 8.92893 22.0711C9.85752 22.9997 10.9599 23.7362 12.1732 24.2388C13.3864 24.7413 14.6868 25 16 25C18.6522 25 21.1957 23.9464 23.0711 22.0711C24.9464 20.1957 26 17.6522 26 15C26 13.6868 25.7413 12.3864 25.2388 11.1732C24.7362 9.95991 23.9997 8.85752 23.0711 7.92893C22.1425 7.00035 21.0401 6.26375 19.8268 5.7612C18.6136 5.25866 17.3132 5 16 5Z" fill="white"/>
</svg>
