<svg width="32" height="30" viewBox="0 0 32 30" fill="none" xmlns="http://www.w3.org/2000/svg">
<rect width="32" height="30" rx="5" fill="#49CDFF"/>
<path d="M15.1383 7V15.1844H17.1844V7H15.1383ZM12.5193 9.94639L11.7418 10.5807C10.0844 11.8902 9 13.9363 9 16.2075C9 20.1565 12.2124 23.3688 16.1614 23.3688C20.1104 23.3688 23.3227 20.1565 23.3227 16.2075C23.3227 13.9363 22.2383 11.8902 20.581 10.5807L19.8034 9.94639L18.5144 11.5424L19.2919 12.1766C20.4787 13.1179 21.2766 14.5706 21.2766 16.2075C21.2766 19.0516 19.0055 21.3227 16.1614 21.3227C13.3173 21.3227 11.0461 19.0516 11.0461 16.2075C11.0461 14.5706 11.7827 13.1179 12.9694 12.1766L13.8083 11.5424L12.5193 9.94639Z" fill="white"/>
</svg>
