<svg width="33" height="33" viewBox="0 0 33 33" fill="none" xmlns="http://www.w3.org/2000/svg">
<path d="M3.4375 19.2499C3.25516 19.2499 3.0803 19.3223 2.95136 19.4512C2.82243 19.5802 2.75 19.755 2.75 19.9374C2.75 20.1197 2.82243 20.2946 2.95136 20.4235C3.0803 20.5524 3.25516 20.6249 3.4375 20.6249H5.5C5.5 22.0836 6.07946 23.4825 7.11091 24.514C8.14236 25.5454 9.54131 26.1249 11 26.1249H22C23.4587 26.1249 24.8576 25.5454 25.8891 24.514C26.9205 23.4825 27.5 22.0836 27.5 20.6249H29.5625C29.7448 20.6249 29.9197 20.5524 30.0486 20.4235C30.1776 20.2946 30.25 20.1197 30.25 19.9374C30.25 19.755 30.1776 19.5802 30.0486 19.4512C29.9197 19.3223 29.7448 19.2499 29.5625 19.2499H3.4375Z" fill="#0FA4DC"/>
<path fill-rule="evenodd" clip-rule="evenodd" d="M15.8847 7.91138L16.5 8.21869L17.1153 8.526L17.1139 8.52806L17.1057 8.54525L17.0713 8.62088C16.8876 9.03105 16.7493 9.46008 16.6588 9.90031C16.4965 10.7109 16.5563 11.4279 16.986 11.8576C17.9313 12.8029 17.8715 14.1484 17.69 15.0566C17.5716 15.6351 17.3856 16.1976 17.1359 16.7327L17.1222 16.7623L17.1173 16.7712L17.116 16.7746L17.1153 16.7753L16.5 16.4687L15.8847 16.1614L15.886 16.1593L15.8943 16.1421L15.9287 16.0665C16.1124 15.6563 16.2507 15.2273 16.3412 14.7871C16.5034 13.9765 16.4436 13.2594 16.0139 12.8298C15.0686 11.8844 15.1284 10.539 15.3099 9.63081C15.4283 9.05232 15.6143 8.48976 15.864 7.95469L15.8778 7.92513L15.8826 7.91619L15.884 7.91344L15.8847 7.91206V7.91138ZM10.4293 9.55313L11 9.93813C11.5699 10.3224 11.5706 10.3218 11.5706 10.3218V10.3211V10.3218L11.5617 10.3355C11.5013 10.4317 11.4449 10.5303 11.3925 10.6311C11.2625 10.8778 11.1589 11.1375 11.0832 11.4059C10.9182 12.0192 10.9773 12.5032 11.409 12.8222C12.5242 13.6486 12.465 14.884 12.2437 15.7028C12.1425 16.0667 12.003 16.4188 11.8277 16.7533C11.751 16.9007 11.6678 17.0445 11.5782 17.1844L11.5727 17.1926L11.5713 17.1954L11.5706 17.1961C11.5706 17.1961 11.5699 17.1974 11 16.8124C10.43 16.4274 10.4293 16.4281 10.4293 16.4281L10.4383 16.4151L10.4754 16.3559C10.5217 16.2784 10.5657 16.1995 10.6074 16.1194C10.714 15.9146 10.8363 15.6396 10.9168 15.3439C11.0818 14.7307 11.0227 14.2474 10.5909 13.9277C9.47578 13.1013 9.5349 11.8666 9.75628 11.0471C9.86971 10.6263 10.0375 10.2564 10.1722 9.99656C10.249 9.84946 10.3322 9.70586 10.4218 9.56619L10.4266 9.55794L10.4287 9.5545L10.43 9.55313H10.4293ZM22.1168 9.55313L22.6875 9.93813C23.2574 10.3224 23.2581 10.3218 23.2581 10.3218V10.3211V10.3218L23.2492 10.3355C23.1888 10.4317 23.1324 10.5303 23.08 10.6311C22.95 10.8778 22.8463 11.1375 22.7706 11.4059C22.6056 12.0192 22.6648 12.5032 23.0965 12.8222C24.2117 13.6486 24.1525 14.884 23.9311 15.7028C23.83 16.0667 23.6905 16.4188 23.5152 16.7533C23.4388 16.9007 23.3557 17.0445 23.2663 17.1844L23.2608 17.1926L23.2588 17.1954L23.2581 17.1961C23.2581 17.1961 23.2574 17.1974 22.6875 16.8124C22.1175 16.4274 22.1168 16.4281 22.1168 16.4281L22.1258 16.4151L22.1629 16.3559C22.2092 16.2784 22.2532 16.1995 22.2949 16.1194C22.4015 15.9146 22.5238 15.6396 22.6043 15.3439C22.7693 14.7307 22.7101 14.2474 22.2784 13.9277C21.1633 13.1013 21.2224 11.8666 21.4438 11.0471C21.5572 10.6263 21.725 10.2564 21.8597 9.99656C21.9362 9.84948 22.0193 9.70587 22.1086 9.56619L22.1141 9.55794L22.1161 9.5545L22.1175 9.55313H22.1168Z" fill="#0FA4DC"/>
</svg>
