<svg width="44" height="44" viewBox="0 0 44 44" fill="none" xmlns="http://www.w3.org/2000/svg">
<path d="M22 2.75C11.3695 2.75 2.75 11.3695 2.75 22C2.75 32.6305 11.3695 41.25 22 41.25C32.6305 41.25 41.25 32.6305 41.25 22C41.25 11.3695 32.6305 2.75 22 2.75ZM22 37.9844C13.1742 37.9844 6.01562 30.8258 6.01562 22C6.01562 13.1742 13.1742 6.01562 22 6.01562C30.8258 6.01562 37.9844 13.1742 37.9844 22C37.9844 30.8258 30.8258 37.9844 22 37.9844Z" fill="#0FA4DC"/>
<path d="M29.5066 27.4398L23.3793 23.0098V12.375C23.3793 12.1859 23.2246 12.0312 23.0355 12.0312H20.9688C20.7797 12.0312 20.625 12.1859 20.625 12.375V24.2086C20.625 24.3203 20.6766 24.4234 20.7668 24.4879L27.8738 29.6699C28.0285 29.7816 28.2434 29.7473 28.3551 29.5969L29.584 27.9211C29.6957 27.7621 29.6613 27.5473 29.5066 27.4398Z" fill="#0FA4DC"/>
</svg>
