<svg width="21" height="23" viewBox="0 0 21 23" fill="none" xmlns="http://www.w3.org/2000/svg">
<path d="M15.5505 7.25573L11.613 3.33534L2.1 12.807V16.7274H6.0375L15.5505 7.25573ZM4.2 14.6365V13.6747L11.613 6.29393L12.579 7.25573L5.166 14.6365H4.2ZM18.5955 4.22396C18.6928 4.12725 18.7701 4.01236 18.8228 3.8859C18.8754 3.75943 18.9026 3.62385 18.9026 3.48693C18.9026 3.35001 18.8754 3.21444 18.8228 3.08797C18.7701 2.9615 18.6928 2.84662 18.5955 2.7499L16.1385 0.303577C15.9416 0.109117 15.6756 0 15.3983 0C15.1209 0 14.8549 0.109117 14.658 0.303577L12.7365 2.21673L16.674 6.13711L18.5955 4.22396ZM0 18.8183H21V23H0V18.8183Z" fill="black"/>
</svg>
