<svg width="28" height="31" viewBox="0 0 28 31" fill="none" xmlns="http://www.w3.org/2000/svg">
<path d="M1 3.175C1 2.59815 1.21626 2.04493 1.6012 1.63704C1.98615 1.22915 2.50824 1 3.05263 1H19.4737C20.0181 1 20.5402 1.22915 20.9251 1.63704C21.3101 2.04493 21.5263 2.59815 21.5263 3.175V30H3.05263C2.50824 30 1.98615 29.7708 1.6012 29.363C1.21626 28.9551 1 28.4018 1 27.825V3.175ZM21.5263 15.5C21.5263 15.1154 21.6705 14.7466 21.9271 14.4747C22.1837 14.2028 22.5318 14.05 22.8947 14.05H25.6316C25.9945 14.05 26.3426 14.2028 26.5992 14.4747C26.8558 14.7466 27 15.1154 27 15.5V27.825C27 28.4018 26.7837 28.9551 26.3988 29.363C26.0139 29.7708 25.4918 30 24.9474 30H21.5263V15.5Z" stroke="white" stroke-width="2" stroke-linejoin="round"/>
<path d="M5.10522 6.80005H10.5789M5.10522 11.875H13.3158" stroke="white" stroke-width="2" stroke-linecap="round" stroke-linejoin="round"/>
</svg>
