<svg width="34" height="39" viewBox="0 0 34 39" fill="none" xmlns="http://www.w3.org/2000/svg">
<path fill-rule="evenodd" clip-rule="evenodd" d="M18.3843 0L33.4414 10.9473L34 11.9873V37.166L32.1543 38.3154L17 27.3682L1.84571 38.3154L0 37.166V11.9873L0.558571 10.9473L15.6157 0H18.3843ZM18.2386 24.9871L31.5714 34.6755V12.7262L18.2386 3.14734V10.9473H15.81V3.0926L2.42857 12.7809V34.6755L15.81 24.9324V24.9871H18.2386ZM20.4243 11.9052L22.1486 9.98938L28.1471 16.7767V18.7198L22.1729 25.4524L20.4729 23.5366L24.3343 19.1577H9.76286L13.6 23.5366L11.9 25.4524L5.92571 18.7198V16.7767L11.9486 9.98938L13.6486 11.9052L9.66571 16.4209H24.4314L20.4243 11.9052Z" fill="#0FA4DC"/>
</svg>
