<svg width="36" height="46" viewBox="0 0 36 46" fill="none" xmlns="http://www.w3.org/2000/svg">
<path d="M35.25 33.2906V33.2904V8.95745C35.25 7.77533 34.7891 6.64072 33.9673 5.80345C33.1453 4.96602 32.0294 4.49468 30.8649 4.49468H29.7365V2.40426C29.7365 1.967 29.566 1.54675 29.2612 1.23617C28.9562 0.925438 28.5415 0.75 28.1081 0.75C27.6747 0.75 27.26 0.925439 26.955 1.23617C26.6502 1.54675 26.4797 1.967 26.4797 2.40426V4.49468H20.0878V2.40426C20.0878 1.967 19.9174 1.54675 19.6125 1.23617C19.3075 0.925439 18.8928 0.75 18.4595 0.75C18.0261 0.75 17.6114 0.925439 17.3064 1.23617C17.0015 1.54675 16.8311 1.967 16.8311 2.40426V4.49468H10.4392V2.40426C10.4392 1.967 10.2687 1.54675 9.96388 1.23617C9.65888 0.925439 9.2442 0.75 8.81081 0.75C8.37742 0.75 7.96274 0.925439 7.65774 1.23617C7.35289 1.54675 7.18243 1.967 7.18243 2.40426V4.49468H5.13514C3.97061 4.49468 2.85474 4.96602 2.03274 5.80345C1.2109 6.64072 0.75 7.77533 0.75 8.95745V40.7872C0.75 41.9693 1.2109 43.104 2.03274 43.9412C2.85474 44.7787 3.97061 45.25 5.13514 45.25H23.5062H23.5064C23.9396 45.2496 24.354 45.0739 24.6587 44.7631L34.774 34.458C34.774 34.4579 34.7741 34.4579 34.7741 34.4578C35.079 34.1476 35.2496 33.7276 35.25 33.2906ZM7.65774 15.2787C7.35289 15.5893 7.18243 16.0096 7.18243 16.4468C7.18243 16.8841 7.35289 17.3043 7.65774 17.6149C7.96274 17.9256 8.37742 18.1011 8.81081 18.1011H27.1892C27.6226 18.1011 28.0373 17.9256 28.3423 17.6149C28.6471 17.3043 28.8176 16.8841 28.8176 16.4468C28.8176 16.0096 28.6471 15.5893 28.3423 15.2787C28.0373 14.968 27.6226 14.7926 27.1892 14.7926H8.81081C8.37742 14.7926 7.96274 14.968 7.65774 15.2787ZM7.65774 23.7043C7.35289 24.0148 7.18243 24.4351 7.18243 24.8723C7.18243 25.3096 7.35289 25.7298 7.65774 26.0404C7.96274 26.3512 8.37742 26.5266 8.81081 26.5266H27.1892C27.6226 26.5266 28.0373 26.3512 28.3423 26.0404C28.6471 25.7298 28.8176 25.3096 28.8176 24.8723C28.8176 24.4351 28.6471 24.0148 28.3423 23.7043C28.0373 23.3935 27.6226 23.2181 27.1892 23.2181H8.81081C8.37742 23.2181 7.96274 23.3935 7.65774 23.7043ZM8.81081 31.6436C8.37742 31.6436 7.96275 31.8191 7.65774 32.1298C7.35289 32.4404 7.18243 32.8606 7.18243 33.2979C7.18243 33.7351 7.35289 34.1554 7.65774 34.466C7.96274 34.7767 8.37742 34.9521 8.81081 34.9521H17.0811C17.5145 34.9521 17.9291 34.7767 18.2342 34.466C18.539 34.1554 18.7095 33.7351 18.7095 33.2979C18.7095 32.8606 18.539 32.4404 18.2342 32.1298C17.9291 31.8191 17.5145 31.6436 17.0811 31.6436H8.81081ZM4.00676 40.7872V8.95745C4.00676 8.64983 4.12675 8.35574 4.33889 8.13961C4.55087 7.92365 4.83739 7.80319 5.13514 7.80319H30.8649C31.1626 7.80319 31.4491 7.92365 31.6611 8.13961C31.8733 8.35574 31.9932 8.64983 31.9932 8.95745V31.6361H26.2629C25.0984 31.6361 23.9825 32.1075 23.1605 32.9449C22.3387 33.7822 21.8778 34.9168 21.8778 36.0989V41.9415H5.13514C4.5167 41.9415 4.00676 41.4287 4.00676 40.7872ZM25.4667 35.2811C25.6787 35.0651 25.9652 34.9446 26.2629 34.9446H29.6976L25.1345 39.5934V36.0989C25.1345 35.7913 25.2545 35.4972 25.4667 35.2811Z" fill="#0FA4DC" stroke="#0FA4DC" stroke-width="0.5"/>
</svg>
