<svg width="32" height="30" viewBox="0 0 32 30" fill="none" xmlns="http://www.w3.org/2000/svg">
<rect width="32" height="30" rx="5" fill="#49CDFF"/>
<g clip-path="url(#clip0_402_6)">
<path d="M22.99 14.5C23.33 14.5 23.66 14.53 23.99 14.57L24 3L4 23H15.56C15.52 22.67 15.49 22.34 15.49 22C15.49 17.86 18.85 14.5 22.99 14.5ZM26.7 22.49C26.72 22.33 26.74 22.17 26.74 22C26.74 21.83 26.73 21.67 26.7 21.51L27.76 20.68C27.8049 20.6415 27.8354 20.5887 27.8463 20.5306C27.8572 20.4724 27.8479 20.4122 27.82 20.36L26.82 18.63C26.76 18.52 26.63 18.48 26.51 18.52L25.27 19.02C25.01 18.82 24.73 18.65 24.42 18.53L24.23 17.21C24.22 17.09 24.11 17 23.99 17H21.99C21.87 17 21.76 17.09 21.74 17.21L21.55 18.53C21.25 18.66 20.96 18.82 20.7 19.02L19.46 18.52C19.35 18.48 19.22 18.52 19.15 18.63L18.15 20.36C18.09 20.47 18.11 20.6 18.21 20.68L19.27 21.51C19.2289 21.8354 19.2289 22.1646 19.27 22.49L18.21 23.32C18.1651 23.3585 18.1346 23.4113 18.1237 23.4694C18.1128 23.5276 18.1221 23.5878 18.15 23.64L19.15 25.37C19.21 25.48 19.34 25.52 19.46 25.48L20.7 24.98C20.96 25.18 21.24 25.35 21.55 25.47L21.74 26.79C21.76 26.91 21.86 27 21.99 27H23.99C24.11 27 24.22 26.91 24.24 26.79L24.43 25.47C24.73 25.34 25.02 25.18 25.27 24.98L26.52 25.48C26.63 25.52 26.76 25.48 26.83 25.37L27.83 23.64C27.8579 23.5878 27.8672 23.5276 27.8563 23.4694C27.8454 23.4113 27.8149 23.3585 27.77 23.32L26.7 22.49ZM22.99 23.5C22.16 23.5 21.49 22.83 21.49 22C21.49 21.17 22.16 20.5 22.99 20.5C23.82 20.5 24.49 21.17 24.49 22C24.49 22.83 23.82 23.5 22.99 23.5Z" fill="white"/>
</g>
<defs>
<clipPath id="clip0_402_6">
<rect width="24" height="24" fill="white" transform="translate(4 3)"/>
</clipPath>
</defs>
</svg>
