<svg width="21" height="22" viewBox="0 0 21 22" fill="none" xmlns="http://www.w3.org/2000/svg">
<g clip-path="url(#clip0_104_47)">
<path d="M14.666 9.62243C15.0971 9.62367 15.5243 9.53529 15.9226 9.36241C16.321 9.18952 16.6826 8.93556 16.9866 8.61524L20.1448 5.3088C20.3946 5.04712 20.4176 4.6213 20.1797 4.34673C20.12 4.27775 20.0475 4.22219 19.9667 4.18344C19.8858 4.14469 19.7983 4.12355 19.7095 4.1213C19.6206 4.11905 19.5322 4.13574 19.4497 4.17035C19.3672 4.20497 19.2922 4.25679 19.2294 4.32267L16.4145 7.26946C16.32 7.36836 16.1918 7.42391 16.0582 7.42391C15.9247 7.42391 15.7965 7.36836 15.702 7.26946C15.5056 7.06407 15.5162 6.71688 15.7123 6.51149L18.5149 3.57544C18.5777 3.50962 18.6271 3.43113 18.6601 3.34471C18.6931 3.25829 18.709 3.16576 18.7069 3.07271C18.7047 2.97966 18.6846 2.88803 18.6476 2.80339C18.6107 2.71875 18.5577 2.64284 18.4919 2.58028C18.3731 2.46743 18.2183 2.40534 18.058 2.40626C17.8762 2.40639 17.702 2.48212 17.5736 2.61681L14.7734 5.54985C14.6789 5.64875 14.5508 5.7043 14.4172 5.7043C14.2836 5.7043 14.1555 5.64875 14.061 5.54985C13.8649 5.34446 13.8752 4.99728 14.0712 4.79188L16.8738 1.85669C16.9367 1.79087 16.9861 1.71238 17.0191 1.62596C17.0521 1.53954 17.068 1.44701 17.0658 1.35396C17.0637 1.26091 17.0435 1.16928 17.0066 1.08464C16.9696 0.999996 16.9167 0.924094 16.8509 0.861534C16.7321 0.748681 16.5773 0.686586 16.4169 0.68751C16.2352 0.687736 16.061 0.763454 15.9325 0.898057L12.7764 4.2045C12.4706 4.52306 12.2282 4.902 12.0631 5.31939C11.8981 5.73678 11.8138 6.18433 11.815 6.6361V6.98974C11.815 7.08015 11.7981 7.16969 11.7651 7.25323C11.7321 7.33676 11.6837 7.41266 11.6226 7.47657L10.162 9.00712C10.1468 9.0231 10.1287 9.03578 10.1088 9.04443C10.0889 9.05308 10.0675 9.05753 10.046 9.05753C10.0244 9.05753 10.0031 9.05308 9.98314 9.04443C9.96323 9.03578 9.94513 9.0231 9.9299 9.00712L2.82271 1.56106C2.70004 1.43241 2.53372 1.35991 2.36015 1.35943C2.18658 1.35894 2.01989 1.43052 1.89658 1.55849C1.27519 2.20345 0.943373 3.11396 0.943373 4.19118C0.939272 5.97009 1.83177 8.0154 3.27265 9.52274L6.77744 13.1944C7.27557 13.7152 7.95056 14.0077 8.65431 14.0078C8.87867 14.0079 9.10211 13.9779 9.31917 13.9184C9.37368 13.9035 9.42977 13.8958 9.48611 13.8957C9.65086 13.8957 9.80951 13.9609 9.93031 14.0783L10.3975 14.5303C10.518 14.6593 10.5857 14.8324 10.5861 15.0129V15.2509C10.5849 15.7921 10.788 16.3118 11.1509 16.6968L14.8444 20.6315L14.8481 20.6358C15.258 21.0652 15.814 21.3064 16.3937 21.3063C16.9734 21.3063 17.5293 21.065 17.9392 20.6355C18.3491 20.2061 18.5794 19.6236 18.5793 19.0163C18.5793 18.409 18.349 17.8266 17.939 17.3972L12.4027 11.5973C12.3875 11.5813 12.3754 11.5624 12.3671 11.5415C12.3589 11.5206 12.3546 11.4983 12.3546 11.4757C12.3546 11.4531 12.3589 11.4307 12.3671 11.4099C12.3754 11.389 12.3875 11.37 12.4027 11.3541L13.8633 9.82396C13.9243 9.76005 13.9966 9.70936 14.0763 9.67479C14.156 9.64021 14.2414 9.62242 14.3276 9.62243H14.666Z" fill="black"/>
<path d="M8.65436 15.3828C7.60367 15.3806 6.59622 14.9444 5.85053 14.169L5.28205 13.5734C5.22054 13.5091 5.1372 13.473 5.05031 13.473C4.96343 13.473 4.88009 13.5091 4.81857 13.5734L1.33225 17.2068C0.710859 17.8578 0.488964 18.816 0.796582 19.7545C0.813798 19.8073 0.834211 19.859 0.857695 19.9092C1.27154 20.7969 2.07463 21.3125 2.95318 21.3125C3.25532 21.3133 3.5546 21.2513 3.83368 21.13C4.11277 21.0087 4.36612 20.8307 4.57904 20.6061L9.22857 15.712C9.24815 15.691 9.26313 15.6659 9.27248 15.6383C9.28183 15.6107 9.28532 15.5813 9.28271 15.5521V15.5409C9.28089 15.5142 9.27391 15.488 9.26218 15.4641C9.25046 15.4403 9.23424 15.4191 9.2145 15.402C9.19476 15.3848 9.17192 15.372 9.14734 15.3644C9.12276 15.3567 9.09695 15.3544 9.07148 15.3575C8.93296 15.3736 8.79373 15.382 8.65436 15.3828Z" fill="black"/>
</g>
<defs>
<clipPath id="clip0_104_47">
<rect width="21" height="22" fill="white"/>
</clipPath>
</defs>
</svg>
