<svg width="29" height="20" viewBox="0 0 29 20" fill="none" xmlns="http://www.w3.org/2000/svg">
<path d="M1.4375 12.2499C1.25516 12.2499 1.0803 12.3223 0.951364 12.4512C0.822433 12.5802 0.75 12.755 0.75 12.9374C0.75 13.1197 0.822433 13.2946 0.951364 13.4235C1.0803 13.5524 1.25516 13.6249 1.4375 13.6249H3.5C3.5 15.0836 4.07946 16.4825 5.11091 17.514C6.14236 18.5454 7.54131 19.1249 9 19.1249H20C21.4587 19.1249 22.8576 18.5454 23.8891 17.514C24.9205 16.4825 25.5 15.0836 25.5 13.6249H27.5625C27.7448 13.6249 27.9197 13.5524 28.0486 13.4235C28.1776 13.2946 28.25 13.1197 28.25 12.9374C28.25 12.755 28.1776 12.5802 28.0486 12.4512C27.9197 12.3223 27.7448 12.2499 27.5625 12.2499H1.4375Z" fill="black"/>
<path fill-rule="evenodd" clip-rule="evenodd" d="M13.8847 0.911377L14.5 1.21869L15.1153 1.526L15.1139 1.52806L15.1057 1.54525L15.0713 1.62088C14.8876 2.03105 14.7493 2.46008 14.6588 2.90031C14.4965 3.71088 14.5563 4.42794 14.986 4.85763C15.9313 5.80294 15.8715 7.14838 15.69 8.05656C15.5716 8.63505 15.3856 9.19762 15.1359 9.73269L15.1222 9.76225L15.1173 9.77119L15.116 9.77463L15.1153 9.77531L14.5 9.46869L13.8847 9.16138L13.886 9.15931L13.8943 9.14213L13.9287 9.0665C14.1124 8.65632 14.2507 8.2273 14.3412 7.78706C14.5034 6.9765 14.4436 6.25944 14.0139 5.82975C13.0686 4.88444 13.1284 3.539 13.3099 2.63081C13.4283 2.05232 13.6143 1.48976 13.864 0.954689L13.8778 0.925127L13.8826 0.916189L13.884 0.913439L13.8847 0.912064V0.911377ZM8.42934 2.55313L8.99996 2.93813C9.5699 3.32244 9.57059 3.32175 9.57059 3.32175V3.32106V3.32175L9.56165 3.3355C9.50131 3.43172 9.44489 3.53035 9.39253 3.63113C9.26254 3.87785 9.15885 4.13754 9.08315 4.40594C8.91815 5.01919 8.97728 5.50319 9.40903 5.82219C10.5242 6.64856 10.465 7.884 10.2437 8.70281C10.1425 9.06668 10.003 9.41881 9.82771 9.75331C9.75105 9.90068 9.66778 10.0445 9.57815 10.1844L9.57265 10.1926L9.57128 10.1954L9.57059 10.1961C9.57059 10.1961 9.5699 10.1974 8.99996 9.81244C8.43003 9.42744 8.42934 9.42813 8.42934 9.42813L8.43828 9.41506L8.4754 9.35594C8.52167 9.27839 8.56569 9.19953 8.6074 9.11944C8.71396 8.91456 8.83634 8.63956 8.91678 8.34394C9.08178 7.73069 9.02265 7.24738 8.5909 6.92769C7.47578 6.10131 7.5349 4.86656 7.75628 4.04706C7.86971 3.62631 8.03746 3.25644 8.17221 2.99656C8.24895 2.84946 8.33223 2.70586 8.42178 2.56619L8.42659 2.55794L8.42865 2.5545L8.43003 2.55313H8.42934ZM20.1168 2.55313L20.6875 2.93813C21.2574 3.32244 21.2581 3.32175 21.2581 3.32175V3.32106V3.32175L21.2492 3.3355C21.1888 3.43172 21.1324 3.53035 21.08 3.63113C20.95 3.87785 20.8463 4.13754 20.7706 4.40594C20.6056 5.01919 20.6648 5.50319 21.0965 5.82219C22.2117 6.64856 22.1525 7.884 21.9311 8.70281C21.83 9.06668 21.6905 9.41881 21.5152 9.75331C21.4388 9.90067 21.3557 10.0445 21.2663 10.1844L21.2608 10.1926L21.2588 10.1954L21.2581 10.1961C21.2581 10.1961 21.2574 10.1974 20.6875 9.81244C20.1175 9.42744 20.1168 9.42813 20.1168 9.42813L20.1258 9.41506L20.1629 9.35594C20.2092 9.27839 20.2532 9.19953 20.2949 9.11944C20.4015 8.91456 20.5238 8.63956 20.6043 8.34394C20.7693 7.73069 20.7101 7.24738 20.2784 6.92769C19.1633 6.10131 19.2224 4.86656 19.4438 4.04706C19.5572 3.62631 19.725 3.25644 19.8597 2.99656C19.9362 2.84948 20.0193 2.70587 20.1086 2.56619L20.1141 2.55794L20.1161 2.5545L20.1175 2.55313H20.1168Z" fill="black"/>
</svg>
