<svg width="27" height="27" viewBox="0 0 27 27" fill="none" xmlns="http://www.w3.org/2000/svg">
<path d="M5.75439 17.3602V20.5951C6.74259 21.8069 7.98835 22.7833 9.40114 23.4533C10.8139 24.1234 12.3583 24.4703 13.9219 24.4688C17.5703 24.4688 20.7866 22.6159 22.68 19.8003V15.266C22.032 19.521 18.3575 22.7813 13.9219 22.7813C10.2482 22.7813 7.0968 20.5453 5.75439 17.3602ZM21.1191 8.75476V7.30182C21.1166 6.98138 21.1691 6.66288 21.2743 6.3602C19.3076 4.44281 16.6686 3.37133 13.9219 3.37501C11.4639 3.37136 9.08251 4.22976 7.19214 5.80079L7.19636 5.85226L7.19721 5.87504V8.15317C8.02813 7.1826 9.05958 6.40371 10.2205 5.87015C11.3814 5.33659 12.6442 5.06105 13.9219 5.06251C16.8868 5.06251 19.5109 6.51882 21.1191 8.75476Z" fill="black"/>
<path d="M20.6719 13.9219C20.6719 15.7121 19.9607 17.429 18.6948 18.6948C17.429 19.9607 15.7121 20.6719 13.9219 20.6719C12.1317 20.6719 10.4148 19.9607 9.1489 18.6948C7.88303 17.429 7.17188 15.7121 7.17188 13.9219C7.17188 12.1317 7.88303 10.4148 9.1489 9.14889C10.4148 7.88302 12.1317 7.17186 13.9219 7.17186C15.7121 7.17186 17.429 7.88302 18.6948 9.14889C19.9607 10.4148 20.6719 12.1317 20.6719 13.9219ZM13.9219 19.8281C14.6975 19.8281 15.4655 19.6753 16.1821 19.3785C16.8987 19.0817 17.5498 18.6467 18.0982 18.0982C18.6467 17.5498 19.0817 16.8987 19.3785 16.1821C19.6754 15.4655 19.8281 14.6975 19.8281 13.9219C19.8281 13.1462 19.6754 12.3782 19.3785 11.6616C19.0817 10.9451 18.6467 10.294 18.0982 9.74551C17.5498 9.19707 16.8987 8.76202 16.1821 8.4652C15.4655 8.16838 14.6975 8.01561 13.9219 8.01561C12.3554 8.01561 10.8532 8.63788 9.74553 9.74551C8.63789 10.8532 8.01562 12.3554 8.01562 13.9219C8.01562 15.4883 8.63789 16.9906 9.74553 18.0982C10.8532 19.2058 12.3554 19.8281 13.9219 19.8281ZM25.3041 6.69936C25.3041 5.93999 24.6881 5.32405 23.9288 5.32405C22.8319 5.32405 21.9544 6.20999 21.9628 7.29843V11.9812C21.9628 13.0385 22.5754 13.9851 23.5237 14.4138V21.6844C23.5237 22.1231 23.8781 22.4775 24.3169 22.4775H24.5109C24.9497 22.4775 25.3041 22.1231 25.3041 21.6844V6.69936ZM5.75437 5.32405C5.60221 5.32405 5.45627 5.3845 5.34867 5.4921C5.24107 5.5997 5.18062 5.74563 5.18062 5.8978V8.16749C5.18062 8.33624 5.04562 8.4628 4.88531 8.4628C4.71656 8.4628 4.59 8.3278 4.59 8.16749V5.92311C4.59 5.61093 4.34531 5.33249 4.03313 5.32405C3.70406 5.31561 3.43406 5.57718 3.43406 5.8978V8.16749C3.43406 8.33624 3.29906 8.4628 3.13875 8.4628C2.97 8.4628 2.84344 8.3278 2.84344 8.16749V5.92311C2.84344 5.61093 2.59875 5.33249 2.28656 5.32405C1.9575 5.31561 1.6875 5.57718 1.6875 5.8978V9.76218C1.6875 10.5232 2.05622 11.2025 2.62322 11.626C3.13031 11.9121 3.13031 13.2216 3.13031 13.2216V21.6759C3.13031 22.1147 3.48469 22.469 3.92344 22.469H4.1175C4.55625 22.469 4.91063 22.1147 4.91063 21.6759V13.2216C4.91063 13.2216 4.91062 11.9635 5.41772 11.626C5.70798 11.4096 5.94371 11.1284 6.10616 10.8048C6.2686 10.4813 6.35328 10.1242 6.35344 9.76218V5.8978C6.34489 5.74405 6.27828 5.59928 6.16707 5.49277C6.05586 5.38626 5.90835 5.32595 5.75437 5.32405Z" fill="black"/>
</svg>
